<svg viewBox="0 0 492 105" xmlns="http://www.w3.org/2000/svg">
 <g>
  <defs>
   <linearGradient id="svg_4" x1="0.00531" y1="1.00542" x2="0.99469" y2="-0.00542">
    <stop stop-color="#6d94d0" offset="0.05"/>
    <stop stop-color="#2e548f" offset="0.95"/>
   </linearGradient>
  </defs>
  <g id="svg_8" stroke="null">
   <g fill="url(#svg_4)" id="svg_6" stroke="null">
    <path d="m4.64767,63.6201c-1.67516,1.11677 -2.4569,3.01529 -2.01019,4.9138c0.44671,1.89851 1.89851,3.23864 3.9087,3.57367c1.34013,0.22335 2.68025,0.33503 4.02038,0.33503c4.02038,0 7.70573,-0.78174 11.05605,-2.4569c6.25393,3.23864 13.40127,4.9138 20.77197,4.9138c23.00552,0 41.7673,-16.63991 41.7673,-37.07686c0,-20.43694 -18.76178,-37.07686 -41.7673,-37.07686c-23.1172,0 -41.7673,16.63991 -41.7673,37.07686c0,7.81741 2.79193,15.41146 7.81741,21.66539c-0.89342,1.78684 -2.23355,3.12696 -3.79703,4.13206l0.00001,0.00001zm3.12696,-25.79745c0,-16.52824 15.52314,-29.92951 34.61996,-29.92951s34.61996,13.40127 34.61996,29.92951s-15.52314,29.92951 -34.61996,29.92951c-6.81231,0 -13.2896,-1.67516 -18.98514,-4.9138l-1.78684,-1.0051l-1.78684,1.11677c-1.89851,1.11677 -4.02038,1.89851 -6.3656,2.23355c1.11677,-1.4518 1.89851,-3.12696 2.56858,-4.9138l0.78174,-2.01019l-1.56348,-1.78684c-4.9138,-5.36051 -7.48238,-11.83779 -7.48238,-18.65011l0,0.00001zm30.37622,4.24374l-10.94437,0l0,-8.3758l10.94437,0l0,-10.94437l8.3758,0l0,10.94437l10.94437,0l0,8.3758l-10.94437,0l0,10.94437l-8.3758,0l0,-10.94437zm67.67643,30.82293c0,7.3707 -2.90361,14.07134 -7.81741,19.43185c0.89342,2.4569 2.56858,5.24883 5.58386,7.14735c0.78174,0.44671 0.55839,1.67516 -0.33503,1.78684c-3.12696,0.44671 -8.48747,0.55839 -13.40127,-2.4569c-5.47219,3.12696 -12.06115,4.9138 -19.09681,4.9138c-15.85817,0 -29.14777,-9.15754 -33.61486,-21.77707c1.67516,0.11168 3.23864,0.22335 4.9138,0.22335c23.67558,0 43.55414,-14.96476 48.46794,-34.84331c9.26921,5.58386 15.29979,14.96476 15.29979,25.5741l-0.00001,-0.00001z" id="svg_7" stroke="null"/>
   </g>
  </g>
  <g id="svg_14" stroke="null">
   <g fill="#2e548f" id="svg_12" stroke="null">
    <path d="m175.91029,89.77105l0,-76.03098l-14.71195,0l-7.64467,54.10163l-7.02109,-53.89377l-14.81588,0l-6.80168,74.71453l8.5454,0.5312l6.69775,-55.78762l7.64467,51.14539l10.06972,0l8.75326,-52.35791l4.74616,57.57753l4.5383,0l0.00001,0zm49.77119,-74.29881l-38.2349,0l0,74.6106l37.02238,0l0,-8.32599l-28.04971,0l0,-19.08858l23.19961,0l0,-7.80634l-22.88782,0l0,-32.16074l28.95044,0l0,-7.22895zm48.55867,41.13341c0.06929,-1.12014 0.13857,-2.40195 0.20786,-3.84543c0.08083,-1.23562 0.12703,-2.73684 0.16167,-4.51521c0.03464,-1.76682 0.05774,-3.82234 0.05774,-6.14345c0,-3.7184 -0.10393,-7.99111 -0.2887,-12.80656c-0.19631,-4.81545 -0.54275,-10.10436 -1.02776,-15.87828l-11.44391,1.37419c0.60049,3.69531 1.01621,7.47145 1.25871,11.33998c0.25405,3.86853 0.40417,7.69086 0.47346,11.46701c0.08083,3.77614 0.09238,7.44836 0.05774,11.01664c-0.03464,3.56828 -0.05774,6.88251 -0.05774,9.94269c0,4.71152 -0.32334,8.71862 -0.97002,12.0213c-0.64668,3.30268 -1.52431,5.99333 -2.63291,8.07194c-1.10859,2.06706 -2.3904,3.59138 -3.85698,4.5614c-1.45503,0.95847 -2.99089,1.44348 -4.60759,1.44348c-1.58205,0 -2.93315,-0.36953 -4.06484,-1.10859c-1.12014,-0.73906 -2.04397,-1.97468 -2.75993,-3.7184c-0.72751,-1.73218 -1.24717,-4.04174 -1.55896,-6.90561c-0.32334,-2.86386 -0.47346,-6.4437 -0.47346,-10.72794c0,-1.75527 0.0231,-3.96091 0.08083,-6.61691c0.04619,-2.656 0.23096,-5.8663 0.5543,-9.65399c0.31179,-3.77614 0.8199,-8.16432 1.52431,-13.17609c0.70442,-5.01176 1.70908,-10.72794 3.00244,-17.16009l-10.80878,-1.63979c-0.63513,2.32112 -1.18943,4.68842 -1.68598,7.09037c-0.49656,2.4135 -0.92383,4.78081 -1.29336,7.12502c-0.36953,2.33266 -0.68132,4.61914 -0.94692,6.84787c-0.2656,2.24028 -0.48501,4.33044 -0.65823,6.30512c-0.42727,4.64223 -0.68132,9.12279 -0.7968,13.44169c0,5.72773 0.30024,10.84342 0.87764,15.34708c0.57739,4.50366 1.58205,8.3029 3.02553,11.40927c1.44348,3.11792 3.40661,5.49677 5.87785,7.14811c2.48279,1.65134 5.6238,2.48279 9.41149,2.48279c3.72995,0 6.9518,-0.69287 9.67709,-2.05552c2.72529,-1.37419 5.03486,-3.4759 6.90561,-6.30512c1.8823,-2.82922 3.37197,-6.40905 4.45747,-10.75104c1.09704,-4.34199 1.87075,-9.49233 2.32112,-15.42792l0.00001,-0.00001zm72.76295,-41.01793l-37.21869,0l0,74.6106l8.38373,0l0,-27.53005l23.36128,0l0,-7.80634l-22.88782,0l0,-32.05681l28.3615,0l0,-7.2174zm45.61397,-0.11548l-38.22335,0l0,74.6106l37.01083,0l0,-8.32599l-28.04971,0l0,-19.08858l23.19961,0l0,-7.80634l-22.88782,0l0,-32.16074l28.95044,0l0,-7.22895zm46.08743,0l-38.2349,0l0,74.6106l37.02238,0l0,-8.32599l-28.04971,0l0,-19.08858l23.19961,0l0,-7.80634l-22.88782,0l0,-32.16074l28.95044,0l0,-7.22895zm51.67659,36.38725c0.06929,-0.70442 0.10393,-1.37419 0.10393,-2.03242l0,-1.97468c0,-4.85009 -0.48501,-9.08815 -1.45503,-12.70262c-0.97002,-3.62602 -2.25183,-6.75549 -3.88007,-9.38839c-1.6167,-2.63291 -3.48745,-4.8039 -5.61225,-6.51298c-2.1248,-1.70908 -4.36508,-3.07173 -6.72084,-4.08794c-2.35576,-1.01621 -4.73461,-1.73218 -7.14811,-2.13635c-2.40195,-0.40417 -4.67688,-0.60049 -6.82477,-0.60049c-0.94692,0 -1.95159,0.03464 -3.00244,0.10393c-1.0624,0.06929 -2.10171,0.18477 -3.14101,0.33489c-1.03931,0.16167 -2.02087,0.39263 -2.95625,0.69287c-0.92383,0.30024 -1.74372,0.66977 -2.44814,1.13169l-1.52431,74.98013c0.17322,0.31179 0.47346,0.57739 0.88918,0.78525c0.42727,0.21941 0.91228,0.40417 1.45503,0.5543c0.54275,0.16167 1.13169,0.30024 1.76682,0.42727c0.63513,0.12703 1.25871,0.21941 1.89385,0.2887c1.47812,0.17322 3.11792,0.27715 4.90783,0.31179c2.13635,0 4.43437,-0.36953 6.88251,-1.09704c2.43659,-0.73906 4.86164,-1.8592 7.27514,-3.34887c2.40195,-1.50122 4.73461,-3.36042 6.98644,-5.58915c2.25183,-2.24028 4.26115,-4.83855 6.03952,-7.80634c1.76682,-2.9678 3.2334,-6.31667 4.39973,-10.04662c1.15478,-3.72995 1.8592,-7.81789 2.11325,-12.2869l-0.00001,-0.00003zm-10.60092,-1.21252c-0.35798,4.67688 -1.01621,8.78791 -1.97468,12.34464c-0.97002,3.54519 -2.13635,6.61691 -3.48745,9.22672c-1.3511,2.59826 -2.86386,4.76926 -4.5383,6.50143c-1.66289,1.74372 -3.38352,3.16411 -5.16188,4.24961c-1.77837,1.0855 -3.55673,1.89385 -5.34665,2.42505c-1.80146,0.5312 -3.48745,0.86609 -5.0695,1.00466l4.74616,-67.49713c2.71374,0.03464 5.08105,0.49656 7.12502,1.37419c2.03242,0.87764 3.79924,2.04397 5.28891,3.4759c1.50122,1.44348 2.73684,3.08327 3.7184,4.90783c0.99311,1.82456 1.80146,3.70686 2.42505,5.64689c0.63513,1.92849 1.10859,3.83388 1.43193,5.71618c0.31179,1.8823 0.5312,3.57983 0.65823,5.0926c0.11548,1.51277 0.18477,2.75993 0.18477,3.7646l0,1.76682l-0.00001,0.00001z" id="svg_13" stroke="null"/>
   </g>
  </g>
 </g>
</svg>